<svg width="329" height="81" viewBox="0 0 329 81" fill="none" xmlns="http://www.w3.org/2000/svg">
<g clip-path="url(#clip0_86_61)">
<path d="M169.114 36.5999H139.297V46.0647H160.764C160.129 48.8376 159.114 51.4691 157.788 53.9024C157.675 54.1147 157.548 54.3269 157.435 54.5391C157.379 54.624 157.336 54.723 157.28 54.8079C157.012 55.2748 156.73 55.7275 156.42 56.1803C156.391 56.2227 156.363 56.2651 156.335 56.3217C155.982 56.8593 155.602 57.3969 155.207 57.9062C154.812 58.4438 154.389 58.9531 153.951 59.4625C153.937 59.4766 153.937 59.4766 153.923 59.4908C153.542 59.9293 153.147 60.3679 152.738 60.7782C152.569 60.9622 152.4 61.1319 152.216 61.3017C151.864 61.6554 151.483 62.0091 151.102 62.3486C150.721 62.7023 150.326 63.0277 149.917 63.3531C149.805 63.4521 149.706 63.537 149.593 63.6078C149.565 63.636 149.537 63.6643 149.508 63.6785C149.099 64.0039 148.69 64.301 148.267 64.5981C148.042 64.7679 147.802 64.9235 147.562 65.0791H147.548C147.125 65.3762 146.702 65.645 146.264 65.8997C145.616 66.2816 144.967 66.6495 144.29 66.9749C143.853 67.2012 143.415 67.3993 142.978 67.5974C142.851 67.654 142.724 67.7105 142.611 67.753C142.372 67.8662 142.132 67.9652 141.892 68.05C141.568 68.1774 141.243 68.3048 140.919 68.4179C140.679 68.5028 140.453 68.5877 140.214 68.6726C140.03 68.7292 139.833 68.7858 139.649 68.8424C139.395 68.9273 139.156 68.998 138.902 69.0687C138.845 69.0829 138.789 69.1111 138.733 69.1111C138.704 69.1253 138.676 69.1395 138.648 69.1395C138.62 69.1536 138.591 69.1678 138.563 69.1678C138.338 69.2243 138.112 69.281 137.886 69.3375C137.167 69.5215 136.433 69.6771 135.686 69.8044C134.995 69.9175 134.29 70.0166 133.584 70.0873C132.526 70.2005 131.455 70.2572 130.369 70.2572C129.861 70.2572 129.353 70.243 128.845 70.2147C128.422 70.2005 127.999 70.1722 127.59 70.1298C127.294 70.1015 126.998 70.0732 126.701 70.0308C126.546 70.0166 126.391 70.0024 126.236 69.9742C125.926 69.9459 125.601 69.8893 125.291 69.8327C125.234 69.8327 125.164 69.8185 125.107 69.8044C124.868 69.7619 124.642 69.7195 124.402 69.6771C120.721 68.9697 117.265 67.5974 114.176 65.7299C113.33 65.1923 112.512 64.6405 111.722 64.0463C111.708 64.0463 111.708 64.0322 111.694 64.0322C111.511 63.8907 111.327 63.7492 111.144 63.6078C111.116 63.5936 111.088 63.5653 111.059 63.537C110.693 63.2399 110.312 62.9428 109.959 62.6316C109.776 62.476 109.607 62.3203 109.437 62.1505C109.296 62.0373 109.155 61.91 109.028 61.7827C108.732 61.5139 108.464 61.245 108.182 60.9622C107.97 60.7358 107.759 60.5236 107.547 60.2972C107.477 60.2123 107.406 60.1416 107.322 60.0567C107.209 59.9293 107.082 59.7879 106.955 59.6464C106.616 59.2644 106.292 58.8683 105.968 58.458C105.77 58.2175 105.587 57.977 105.403 57.7223C103.147 54.6948 101.412 51.2427 100.368 47.5078C100.368 47.5078 100.368 47.5078 100.368 47.4936C99.5783 44.7773 99.1693 41.9053 99.1693 38.9485C99.1693 37.2224 99.3103 35.5247 99.5924 33.8694C99.5924 33.8694 99.5924 33.8694 99.5924 33.8553C99.6488 33.445 99.7193 33.063 99.8039 32.6669C99.8039 32.6527 99.8039 32.6386 99.8039 32.6386C100.989 26.8522 103.753 21.66 107.646 17.5148V17.5006C107.66 17.4864 107.66 17.4723 107.66 17.4723C110.171 14.8126 113.133 12.5914 116.419 10.9361C119.861 9.21012 123.669 8.09249 127.703 7.75287C128.577 7.68215 129.466 7.63975 130.369 7.63975C135.319 7.63975 140.002 8.79987 144.149 10.8512L133.429 0.127367C132.428 0.0424843 131.398 0 130.369 0C108.93 0 91.5386 17.4299 91.5386 38.9485C91.5386 60.4528 108.93 77.8968 130.369 77.8968C151.286 77.8968 168.338 61.3159 169.156 40.5471C169.184 40.0095 169.198 39.4861 169.198 38.9485C169.198 38.1703 169.17 37.3922 169.114 36.6141V36.5999ZM63.3431 47.3925H61.1413V61.1463C61.1413 62.0209 60.9581 62.8955 60.7288 63.5849C59.7653 65.7927 57.4265 68.0475 54.2165 68.0475C49.8591 68.0475 48.3914 64.5976 48.3914 59.8131V47.3925H46.1904V60.2262C46.1904 68.5531 50.9142 69.9789 53.7117 69.9789C57.6104 69.9789 60.1324 67.5874 61.2329 65.5164H61.3252L61.4623 69.4733H63.5263C63.3886 67.7711 63.3431 66.0234 63.3431 64.0905V47.3925ZM77.5179 46.8854C73.7108 46.8854 71.0049 48.6801 69.3995 51.5787H69.3079L69.1702 47.3925H67.0607C67.1985 49.5077 67.2439 51.6699 67.2439 54.4304V78.5822H69.4457V65.8853H69.5373C71.051 68.5531 73.8485 69.9789 77.0131 69.9789C82.3333 69.9789 87.0109 65.9308 87.0109 58.064C87.0109 51.5787 83.2045 46.8854 77.5179 46.8854ZM76.8754 68.1386C73.4815 68.1386 70.5462 65.9308 69.6289 62.5266C69.4918 61.9753 69.4457 61.3771 69.4457 60.7788V56.4544C69.4457 55.8562 69.6289 55.1668 69.7666 54.5685C70.7301 50.9335 73.8485 48.7257 77.0592 48.7257C82.0578 48.7257 84.8099 53.1883 84.8099 58.1566C84.8099 64.045 81.9201 68.1386 76.8754 68.1386ZM193.678 55.5799C193.678 51.6699 192.44 46.8854 186.065 46.8854C184.093 46.8854 181.616 47.4381 179.598 48.7713L180.286 50.3823C181.891 49.2314 183.909 48.7257 185.835 48.7257C191.064 48.6801 191.476 53.0501 191.476 55.2124V55.8106C182.487 55.718 178.038 58.8004 178.038 63.9068C178.038 66.851 180.056 69.9789 184.505 69.9789C188.037 69.9789 190.467 68.0005 191.568 66.2997H191.66L191.981 69.4733H193.999C193.724 67.7711 193.678 65.9764 193.678 64.2287V55.5799ZM191.476 62.3884C191.476 62.7573 191.431 63.263 191.247 63.723C190.514 65.8853 188.403 68.1386 184.735 68.1386C182.441 68.1386 180.332 66.7128 180.332 63.5393C180.332 58.2491 186.661 57.5127 191.476 57.6509V62.3884ZM210.606 69.4733H212.807V36.8108H210.606V69.4733ZM231.247 39.1574C230.238 39.1574 229.458 40.0776 229.458 41.0896C229.458 42.1009 230.146 42.9755 231.155 42.9755C232.302 42.9755 232.99 42.1009 232.99 41.0896C232.99 40.0313 232.256 39.1574 231.247 39.1574ZM230.146 69.4733H232.348V47.3925H230.146V69.4733ZM249.55 69.4733H251.751V36.8108H249.55V69.4733ZM277.162 46.8854C271.475 46.8854 267.255 51.4862 267.255 58.846C267.255 65.3326 271.199 69.9333 277.529 69.9333C281.381 69.9333 283.628 68.9676 284.454 68.5075L283.904 66.8054C282.666 67.4036 281.014 68.0475 277.804 68.0475C273.218 68.0475 269.411 65.2414 269.411 58.2021H285.646C285.739 57.789 285.739 57.4671 285.739 56.8689C285.739 53.694 284.363 46.8854 277.162 46.8854ZM269.503 56.4544C269.916 53.0501 272.025 48.7257 276.887 48.7257C282.207 48.7257 283.491 53.3721 283.445 56.4544H269.503ZM282.62 37.8235H279.409L275.328 44.172H277.025L282.62 37.8235ZM317.802 56.8689C317.802 53.694 316.426 46.8854 309.225 46.8854C303.537 46.8854 299.318 51.4862 299.318 58.846C299.318 65.3326 303.262 69.9333 309.592 69.9333C313.445 69.9333 315.692 68.9676 316.518 68.5075L315.967 66.8054C314.729 67.4036 313.077 68.0475 309.867 68.0475C305.28 68.0475 301.473 65.2414 301.473 58.2021H317.709C317.802 57.789 317.802 57.4671 317.802 56.8689ZM301.565 56.4544C301.978 53.0501 304.088 48.7257 308.951 48.7257C314.27 48.7257 315.554 53.3721 315.508 56.4544H301.565ZM36.0128 48.3264C34.572 47.5845 32.9832 46.978 31.247 46.5096C29.5087 46.0427 27.7725 45.6185 26.0356 45.2358C24.298 44.8531 22.7092 44.3972 21.2691 43.8639C19.8283 43.3333 18.6527 42.5154 17.7423 41.4101C16.8311 40.3062 16.3759 38.8832 16.3759 37.1396C16.3759 34.4627 17.2436 32.4228 18.9819 31.0205C20.7181 29.6181 22.9853 28.917 25.7814 28.917C28.5776 28.917 30.78 29.5864 32.3909 30.9251C34.0004 32.2632 34.8902 33.8251 35.0596 35.6102H40.0802C39.572 32.4228 38.1312 29.873 35.7586 27.9609C33.3854 26.0488 30.1347 25.0927 26.0039 25.0927C21.8731 25.0927 18.5467 26.198 16.0267 28.4072C13.5054 30.617 12.2451 33.4217 12.2451 36.8211C12.2451 40.2213 13.0922 42.8125 14.787 44.5975C16.4812 46.3825 18.526 47.5845 20.9199 48.1993C23.3131 48.8155 25.7071 49.3571 28.101 49.8255C30.4942 50.2925 32.5383 51.1311 34.2339 52.3428C35.9274 53.5544 36.7752 55.3602 36.7752 57.7614C36.7752 60.1626 35.8537 62.1701 34.0114 63.7852C32.1684 65.4003 29.6898 66.2072 26.5755 66.2072C23.4619 66.2072 21.1203 65.5371 19.5535 64.1997C17.9854 62.8609 17.1169 61.1712 16.9482 59.132H12.2451C12.2451 62.4464 13.6011 65.0812 16.3125 67.0361C19.0232 68.9911 22.5501 69.9679 26.8937 69.9679C31.2359 69.9679 34.6567 68.7148 37.1567 66.2072C39.656 63.6996 40.906 60.7678 40.906 57.4105C40.906 55.1585 40.4507 53.2671 39.5396 51.7376C38.6284 50.2068 37.4528 49.0711 36.0128 48.3264Z" fill="#FC9C64"/>
<path d="M176.312 27.2909H177.505V15.3234H176.312V27.2909ZM176.859 12.9291C177.48 12.9291 177.853 12.4552 177.853 11.9067C177.853 11.3333 177.455 10.8594 176.908 10.8594C176.361 10.8594 175.939 11.3582 175.939 11.9067C175.939 12.4552 176.312 12.9291 176.859 12.9291ZM185.885 27.2909H187.078V19.8855C187.078 19.5111 187.153 19.1132 187.228 18.8133C187.7 17.2673 189.142 16.0709 190.807 16.0709C193.268 16.0709 194.113 18.041 194.113 20.2101V27.2909H195.306V20.1093C195.306 15.6218 192.274 15.0485 191.13 15.0485C189.191 15.0485 187.675 16.1455 187.029 17.4925H186.979L186.904 15.3234H185.786C185.86 16.2698 185.885 17.0932 185.885 18.1902V27.2909ZM207.716 27.2909C209.854 27.2909 211.245 26.1939 211.867 24.9725H211.917V26.6678C211.917 30.2074 210.102 31.5048 207.592 31.5048C206.051 31.5048 204.882 31.0557 204.037 30.5072L203.615 31.455C204.534 32.1527 206.051 32.5023 207.418 32.5023C208.76 32.5023 210.376 32.1279 211.469 31.0806C212.464 30.1328 213.11 28.6117 213.11 25.5459V18.4141C213.11 17.1679 213.135 16.2201 213.21 15.3234H212.116L212.041 17.3419H211.991C211.494 16.3444 210.326 15.0485 207.965 15.0485C205.33 15.0485 202.595 17.2425 202.595 21.4066C202.595 24.6727 204.708 27.2909 207.716 27.2909ZM208.064 16.046C210.028 16.046 211.271 17.3171 211.768 18.7636C211.892 19.1132 211.917 19.4862 211.917 19.9352V22.3295C211.917 22.7523 211.843 23.2013 211.718 23.6006C211.097 25.3207 209.63 26.2934 208.014 26.2934C205.206 26.2934 203.788 23.975 203.788 21.2823C203.788 18.1156 205.529 16.046 208.064 16.046ZM228.825 10.1369H227.086L224.873 13.5771H225.793L228.825 10.1369ZM226.066 27.5396C228.154 27.5396 229.372 27.0159 229.82 26.7672L229.521 25.8443C228.85 26.169 227.955 26.5186 226.215 26.5186C223.73 26.5186 221.666 24.9974 221.666 21.1828H230.466C230.516 20.9576 230.516 20.7835 230.516 20.4588C230.516 18.7387 229.77 15.0485 225.867 15.0485C222.785 15.0485 220.498 17.5423 220.498 21.531C220.498 25.0471 222.636 27.5396 226.066 27.5396ZM225.719 16.046C228.601 16.046 229.298 18.5647 229.273 20.235H221.716C221.94 18.3892 223.084 16.046 225.719 16.046ZM237.929 27.2909H239.122V19.8855C239.122 19.5111 239.196 19.1132 239.271 18.8133C239.743 17.2673 241.185 16.0709 242.851 16.0709C245.311 16.0709 246.157 18.041 246.157 20.2101V27.2909H247.35V20.1093C247.35 15.6218 244.318 15.0485 243.174 15.0485C241.235 15.0485 239.718 16.1455 239.072 17.4925H239.023L238.948 15.3234H237.829C237.904 16.2698 237.929 17.0932 237.929 18.1902V27.2909ZM255.634 27.2909H256.826V15.3234H255.634V27.2909ZM256.18 12.9291C256.802 12.9291 257.174 12.4552 257.174 11.9067C257.174 11.3333 256.777 10.8594 256.23 10.8594C255.683 10.8594 255.26 11.3582 255.26 11.9067C255.26 12.4552 255.634 12.9291 256.18 12.9291ZM269.78 27.5396C271.868 27.5396 273.086 27.0159 273.534 26.7672L273.235 25.8443C272.564 26.169 271.669 26.5186 269.929 26.5186C267.443 26.5186 265.38 24.9974 265.38 21.1828H274.18C274.23 20.9576 274.23 20.7835 274.23 20.4588C274.23 18.7387 273.484 15.0485 269.581 15.0485C266.498 15.0485 264.212 17.5423 264.212 21.531C264.212 25.0471 266.35 27.5396 269.78 27.5396ZM269.432 16.046C272.315 16.046 273.012 18.5647 272.987 20.235H265.43C265.653 18.3892 266.797 16.046 269.432 16.046ZM285.62 27.5658C287.733 27.5658 289.1 26.2685 289.697 25.1466H289.746L289.821 27.2909H290.94C290.865 26.368 290.84 25.4202 290.84 24.3743V15.3234H289.647V22.7785C289.647 23.2511 289.547 23.7249 289.423 24.0994C288.901 25.2958 287.633 26.5186 285.894 26.5186C283.532 26.5186 282.737 24.6479 282.737 22.0546V15.3234H281.543V22.2798C281.543 26.7921 284.104 27.5658 285.62 27.5658ZM299.198 27.2909H300.391V20.684C300.391 20.2848 300.416 19.8855 300.49 19.5359C300.814 17.6169 301.982 16.1952 303.622 16.1952C303.846 16.1952 304.02 16.1952 304.194 16.2449V15.0982C304.045 15.0733 303.871 15.0485 303.697 15.0485C302.081 15.0485 300.838 16.2449 300.316 17.7412H300.241L300.192 15.3234H299.098C299.172 16.495 299.198 17.7164 299.198 18.9128V27.2909ZM313.121 26.5434C312.052 26.5434 311.083 26.1193 310.437 25.72L310.014 26.7175C310.81 27.2163 311.904 27.5396 313.047 27.5396C315.484 27.5396 317.074 26.169 317.074 24.1242C317.074 22.3047 315.93 21.332 313.992 20.5832C312.376 19.9103 311.53 19.3618 311.53 18.1156C311.53 17.0186 312.327 16.046 313.843 16.046C315.036 16.046 315.806 16.4701 316.229 16.7686L316.676 15.7959C316.08 15.3732 315.135 15.0485 314.041 15.0485C311.73 15.0485 310.362 16.5696 310.362 18.2897C310.362 19.7363 311.431 20.8084 313.395 21.5558C315.11 22.2549 315.905 22.9526 315.905 24.2734C315.905 25.521 315.011 26.5434 313.121 26.5434ZM0 33.573H1.41046V2.50351H99.1693V1.08875H0V33.573ZM327.59 42.3013V79.5853H172.689V81H329V42.3013H327.59Z" fill="#FC9C64"/>
<path d="M99.3386 35.8642C99.2257 36.8829 99.1693 37.9015 99.1693 38.9485C99.1693 41.4667 99.4655 43.9142 100.03 46.2486C100.368 45.3149 100.735 44.3811 101.172 43.4474C100.1 40.4622 99.5783 37.7742 99.3386 35.8642ZM101.906 45.329C101.581 46.1212 101.299 46.9136 101.045 47.7059L100.834 48.3849L100.608 48.3142C101.567 51.4266 103.02 54.3269 104.853 56.9442C105.178 55.4304 105.601 53.9308 106.137 52.5018C104.444 50.3797 103.034 47.9887 101.906 45.329ZM107.195 53.761C106.743 55.0909 106.363 56.4632 106.095 57.8638L105.968 58.458C106.292 58.8683 106.616 59.2645 106.955 59.6465C107.082 59.7879 107.209 59.9293 107.322 60.0567C107.406 60.1416 107.477 60.2123 107.547 60.2972C107.759 60.5236 107.971 60.7499 108.182 60.9622C108.464 61.2451 108.732 61.5139 109.028 61.7827C109.169 61.8959 109.296 62.0233 109.437 62.1505L111.342 63.1267L111.99 63.3955C112.54 63.6219 113.076 63.8341 113.598 64.018C113.725 62.8155 113.979 61.2875 114.444 59.604C111.666 58.0336 109.24 56.0671 107.195 53.761ZM114.854 66.126C117.562 67.6823 120.538 68.8424 123.697 69.5215C123.711 69.1395 123.725 68.6867 123.768 68.2058C120.975 67.8237 117.985 67.074 114.868 65.9846L114.854 66.126ZM114.966 64.5273C118.126 65.645 121.13 66.4231 123.923 66.8052C124.078 65.5884 124.318 64.4283 124.628 63.3531C121.398 62.6882 118.394 61.6696 115.714 60.2972C115.291 61.9384 115.065 63.4097 114.966 64.5273ZM125.333 66.9608C132.301 67.654 136.321 65.7016 138.295 64.2444C137.125 64.3152 135.982 64.3434 134.854 64.3434C131.709 64.3434 128.761 64.1029 126.024 63.6078C125.714 64.6547 125.488 65.7723 125.333 66.9608ZM136.955 62.8862C133.74 61.7261 130.763 60.3962 128.07 58.9249C127.421 59.9293 126.899 61.0471 126.476 62.2496C129.677 62.8014 133.19 63.0135 136.955 62.8862ZM133.218 53.9874H133.204C131.511 54.9211 130.058 56.1803 128.874 57.7365C131.765 59.321 134.981 60.7216 138.493 61.9242C136.659 59.3777 134.882 56.7179 133.218 53.9874ZM140.778 51.8653C138.45 52.035 136.335 52.516 134.487 53.3366C136.194 56.1378 138.013 58.8541 139.903 61.4573C140.355 58.1751 140.651 54.9635 140.778 51.8653ZM142.202 51.7945C142.075 54.8646 141.779 58.0618 141.342 61.3299C144.177 58.458 146.462 55.4162 148.126 52.219C146.039 51.8935 144.05 51.7379 142.202 51.7945ZM152.343 53.0678C151.413 52.8414 150.496 52.6434 149.593 52.4736C148.126 55.3455 146.208 58.1043 143.867 60.7216C147.266 58.741 150.101 56.1803 152.343 53.0678ZM128.168 68.5311C127.237 68.5311 126.236 68.4887 125.164 68.3755C125.136 68.8565 125.122 69.3092 125.108 69.6912V69.8044C125.164 69.8185 125.235 69.8327 125.291 69.8327C125.601 69.8893 125.926 69.9317 126.236 69.9742C126.391 70.0024 126.546 70.0166 126.701 70.0308C126.998 70.0733 127.294 70.1015 127.59 70.1298C127.999 70.1722 128.422 70.2005 128.845 70.2147C129.353 70.243 129.861 70.2572 130.369 70.2572C131.455 70.2572 132.527 70.2005 133.584 70.0873C134.29 70.0166 134.995 69.9176 135.686 69.8044C136.434 69.6771 137.167 69.5215 137.886 69.3376C138.112 69.281 138.338 69.2243 138.563 69.1678C138.592 69.1678 138.62 69.1536 138.648 69.1395C138.62 69.1395 138.592 69.1395 138.563 69.1536C139.113 67.7105 139.367 66.1967 139.48 65.1216C137.661 66.6071 134.12 68.5311 128.168 68.5311ZM140.214 68.6585C140.03 68.7292 139.833 68.7858 139.649 68.8424C139.833 68.7858 140.03 68.7292 140.214 68.6726C140.453 68.5877 140.679 68.5028 140.919 68.4179C141.243 68.3048 141.568 68.1774 141.892 68.0501C142.132 67.9652 142.372 67.8662 142.611 67.753C142.724 67.7105 142.851 67.654 142.978 67.5974L140.933 64.9093C140.834 65.8714 140.651 67.2296 140.214 68.6585ZM144.29 66.9749C144.967 66.6495 145.616 66.2816 146.264 65.8997C146.702 65.645 147.125 65.3762 147.548 65.0791C145.108 64.9801 143.119 64.4 141.991 63.9756L144.29 66.9749ZM142.978 62.8155C144.417 63.2823 146.843 63.8483 149.593 63.6078C149.706 63.5371 149.805 63.4521 149.918 63.3531C150.327 63.0277 150.721 62.6881 151.102 62.3486C151.483 62.0091 151.864 61.6554 152.217 61.3017C152.4 61.1319 152.569 60.9622 152.738 60.7783C153.147 60.3679 153.542 59.9293 153.923 59.4908C153.937 59.4766 153.937 59.4766 153.951 59.4625C154.375 58.9673 154.798 58.4439 155.207 57.9062C155.588 57.3969 155.968 56.8593 156.335 56.3217C156.363 56.2652 156.392 56.2227 156.42 56.1803C156.716 55.7275 156.998 55.2748 157.28 54.8079C157.337 54.723 157.379 54.624 157.435 54.5391C156.194 54.1289 154.967 53.761 153.81 53.4356C151.06 57.4111 147.421 60.5518 142.978 62.8155ZM156.095 46.0647H152.132L152.076 46.2628C151.596 47.918 150.989 49.5592 150.242 51.1579C151.215 51.3417 152.202 51.5681 153.19 51.8228C154.36 50.026 155.334 48.102 156.095 46.0647ZM148.803 50.9031C149.551 49.3328 150.186 47.7059 150.665 46.0647H142.273C142.315 47.4511 142.301 48.9084 142.259 50.3797C144.29 50.3373 146.49 50.5212 148.803 50.9031ZM106.334 25.4516C106.236 22.3816 106.518 19.9481 106.743 18.5334C103.471 22.325 101.102 26.9088 99.9592 31.9595C99.9168 32.0868 99.8887 32.2142 99.8745 32.3415C99.9733 32.2142 100.072 32.0868 100.171 31.9595C102.032 29.6252 104.106 27.4464 106.334 25.4516ZM100.552 33.7704C100.636 35.171 100.947 38.1137 102.047 41.6365C103.528 38.7645 105.361 36.133 107.491 33.7846C106.955 31.6624 106.602 29.4978 106.419 27.2908C104.289 29.2715 102.329 31.4502 100.552 33.7704ZM106.743 50.974C107.942 48.2152 109.522 45.6686 111.44 43.4191C109.959 40.9009 108.775 38.2128 107.942 35.3974C105.841 37.8166 104.092 40.533 102.681 43.504C103.739 46.2769 105.093 48.7669 106.743 50.974ZM119.141 52.6999C117.844 54.5391 116.842 56.6188 116.123 58.9108C118.789 60.2972 121.793 61.3441 125.051 61.9949C125.517 60.6226 126.123 59.3635 126.842 58.2317C123.993 56.5764 121.412 54.723 119.141 52.6999ZM132.47 52.7706C131.046 50.3939 129.649 47.8897 128.323 45.329C124.938 46.8004 122.146 48.8942 120.002 51.5681C122.244 53.5771 124.811 55.4162 127.646 57.0433C128.944 55.289 130.566 53.8459 132.47 52.7706ZM114.868 58.2175C115.643 55.8266 116.715 53.662 118.098 51.7379C115.813 49.5874 113.852 47.2248 112.216 44.6924C110.368 46.9418 108.859 49.4884 107.759 52.2472C109.748 54.624 112.131 56.633 114.868 58.2175ZM140.862 46.0788V46.0647H139.297V42.8815C135.714 43.122 132.47 43.7586 129.635 44.8055C130.947 47.338 132.329 49.7997 133.74 52.134C135.813 51.1861 138.197 50.6203 140.848 50.4363C140.891 48.9367 140.905 47.4794 140.862 46.0788ZM158.366 36.5292C158.521 35.171 158.606 33.8694 158.62 32.6386C156.885 31.9171 154.981 31.3653 152.95 31.0399C153.246 32.9216 153.387 34.7891 153.387 36.5999H158.366V36.5292ZM141.582 36.5999H151.977C151.977 34.7324 151.822 32.7942 151.511 30.8277C148.211 30.4033 144.53 30.4599 140.58 30.9834C140.975 32.6952 141.3 34.5627 141.568 36.5009L141.582 36.5999ZM139.254 41.4667H139.297V36.5999H140.143C139.889 34.69 139.565 32.8791 139.17 31.1955C138.098 31.3512 136.927 31.5634 135.615 31.8322C131.751 32.6528 128.211 33.7846 125.065 35.1852C126.25 37.9581 127.576 40.7735 128.986 43.5465C132.005 42.4146 135.446 41.7072 139.254 41.4667ZM107.717 24.2491C110.721 21.7308 113.979 19.5944 117.378 17.8685C116.391 14.3316 115.911 11.9972 115.77 11.2898C112.978 12.7612 110.425 14.6711 108.21 16.9065L108.492 16.9772L108.337 17.6704C108.182 18.3919 107.717 20.797 107.717 24.2491ZM107.773 26.0599C107.872 28.2669 108.168 30.4457 108.662 32.5679C111.722 29.4978 115.404 26.9371 119.607 24.9423C118.902 22.9192 118.295 21.0092 117.787 19.2549C114.233 21.0659 110.862 23.3436 107.773 26.0599ZM118.676 17.246C122.752 15.3361 127.11 14.0062 131.624 13.2847C129.24 9.87503 127.294 8.33299 127.266 8.30467L126.715 7.88026L126.73 7.86609C123.302 8.24811 120.058 9.21014 117.082 10.6249L117.11 10.8088C117.124 10.8371 117.576 13.2563 118.676 17.246ZM119.071 18.6183C119.579 20.3868 120.185 22.3109 120.89 24.3623C122.738 23.5417 124.684 22.8343 126.673 22.2542C129.692 21.3629 132.696 20.698 135.573 20.2878C134.685 18.2787 133.641 16.3547 132.498 14.5862C127.858 15.2512 123.302 16.6093 119.071 18.6183ZM109.057 34.1948C109.846 37.0527 110.975 39.769 112.428 42.3015C115.333 39.1606 118.944 36.5434 123.232 34.4919C122.047 31.719 120.989 28.9603 120.072 26.2863C115.784 28.3236 112.075 30.9975 109.057 34.1948ZM127.675 44.0841C126.278 41.3394 124.981 38.5523 123.796 35.7935C119.564 37.8166 115.982 40.434 113.189 43.5747C114.769 46.1072 116.715 48.484 118.972 50.6061C121.229 47.8048 124.163 45.5978 127.675 44.0841ZM135.333 30.4457C136.603 30.1769 137.759 29.9647 138.831 29.8091C138.14 26.9088 137.252 24.1784 136.166 21.6459C133.232 22.042 130.171 22.7069 127.068 23.6124C125.094 24.1924 123.175 24.8857 121.356 25.7062C122.287 28.3802 123.33 31.139 124.501 33.8978C127.731 32.4405 131.37 31.2946 135.333 30.4457ZM133.204 13.0724C136.843 12.6056 140.707 12.5348 144.642 12.8743C144.008 11.8557 143.585 11.2757 143.585 11.2757L143.161 10.6956L143.415 10.5117C139.452 8.67252 135.037 7.63977 130.369 7.63977C129.819 7.63977 129.254 7.65393 128.718 7.68217C129.565 8.47443 131.271 10.2005 133.204 13.0724ZM134.05 14.4023C135.164 16.1849 136.166 18.0948 137.04 20.0897C140.82 19.5662 144.6 19.453 148.239 19.7218C147.28 17.5006 146.307 15.6756 145.573 14.4023C141.638 13.9779 137.788 13.9779 134.05 14.4023ZM146.42 13.0582C146.998 13.1149 147.576 13.1856 148.253 13.2847C147.365 12.6622 146.434 12.0821 145.475 11.5445C145.743 11.9406 146.053 12.4499 146.405 13.0582H146.42ZM149.805 19.835C151.864 20.0331 153.853 20.3302 155.757 20.7405C154.135 18.4627 152.217 16.4254 150.059 14.6569C150.059 14.6569 147.858 14.6569 147.294 14.5862C148.042 15.9444 148.944 17.7411 149.805 19.835ZM151.243 29.3705C150.736 26.64 149.918 23.8954 148.831 21.1791C145.164 20.8678 141.398 20.9668 137.604 21.4479C138.676 23.9944 139.565 26.7391 140.256 29.6252C144.149 29.0734 147.858 28.9885 151.243 29.3705ZM152.71 29.5686C154.826 29.894 156.815 30.4174 158.648 31.139C158.634 28.748 157.576 23.5559 156.871 22.4381L156.18 22.2825C154.346 21.8581 152.4 21.5328 150.411 21.3205C151.455 24.051 152.231 26.8239 152.71 29.5686ZM157.605 46.0647L157.52 46.3052C156.758 48.3849 155.785 50.3655 154.614 52.2048C155.7 52.516 156.843 52.8555 157.999 53.2234L158.126 53.2659C159.283 51.0164 160.186 48.5971 160.764 46.0647H157.605Z" fill="#FC9C64"/>
</g>
<defs>
<clipPath id="clip0_86_61">
<rect width="329" height="81" fill="white"/>
</clipPath>
</defs>
</svg>
