<svg width="291" height="72" viewBox="0 0 291 72" fill="none" xmlns="http://www.w3.org/2000/svg">
<g clip-path="url(#clip0_86_35)">
<path d="M149.581 32.5332H123.208V40.9464H142.195C141.634 43.4112 140.736 45.7503 139.563 47.9133C139.463 48.1019 139.351 48.2906 139.251 48.4792C139.201 48.5546 139.164 48.6427 139.114 48.7181C138.877 49.1331 138.628 49.5356 138.353 49.938C138.328 49.9757 138.303 50.0135 138.278 50.0637C137.966 50.5416 137.629 51.0195 137.28 51.4722C136.931 51.9501 136.557 52.4028 136.17 52.8556C136.157 52.8681 136.157 52.8681 136.145 52.8807C135.808 53.2705 135.459 53.6604 135.097 54.0251C134.947 54.1886 134.798 54.3395 134.635 54.4904C134.323 54.8048 133.987 55.1192 133.65 55.421C133.313 55.7354 132.964 56.0246 132.602 56.3139C132.502 56.4018 132.415 56.4774 132.315 56.5402C132.29 56.5653 132.265 56.5905 132.24 56.6031C131.878 56.8923 131.516 57.1564 131.142 57.4205C130.943 57.5714 130.731 57.7098 130.518 57.8481H130.506C130.132 58.1122 129.757 58.3511 129.371 58.5775C128.797 58.917 128.223 59.244 127.624 59.5332C127.237 59.7344 126.851 59.9105 126.464 60.0866C126.352 60.1369 126.239 60.1871 126.14 60.2249C125.927 60.3255 125.715 60.4135 125.503 60.4889C125.216 60.6021 124.929 60.7154 124.642 60.8159C124.43 60.8914 124.231 60.9668 124.019 61.0423C123.857 61.0926 123.682 61.1429 123.52 61.1932C123.295 61.2687 123.083 61.3316 122.859 61.3944C122.809 61.407 122.759 61.4321 122.709 61.4321C122.684 61.4447 122.659 61.4573 122.634 61.4573C122.609 61.4699 122.584 61.4825 122.559 61.4825C122.359 61.5327 122.16 61.5831 121.96 61.6334C121.324 61.7969 120.675 61.9352 120.014 62.0484C119.403 62.1489 118.779 62.237 118.155 62.2998C117.22 62.4005 116.271 62.4508 115.311 62.4508C114.862 62.4508 114.413 62.4382 113.963 62.413C113.589 62.4005 113.215 62.3753 112.853 62.3376C112.591 62.3124 112.329 62.2873 112.067 62.2496C111.93 62.237 111.793 62.2244 111.656 62.1993C111.381 62.1741 111.094 62.1238 110.82 62.0735C110.77 62.0735 110.707 62.0609 110.657 62.0484C110.445 62.0106 110.246 61.9729 110.034 61.9352C106.778 61.3064 103.721 60.0866 100.989 58.4266C100.24 57.9487 99.5169 57.4582 98.8183 56.9301C98.8058 56.9301 98.8058 56.9175 98.7934 56.9175C98.6312 56.7918 98.469 56.666 98.3068 56.5402C98.2818 56.5276 98.2568 56.5025 98.2319 56.4774C97.9076 56.2133 97.5707 55.9491 97.2588 55.6725C97.0966 55.5342 96.9469 55.3958 96.7972 55.2449C96.6725 55.1443 96.5477 55.0311 96.4355 54.9179C96.1735 54.679 95.9364 54.44 95.6869 54.1886C95.4998 53.9873 95.3127 53.7987 95.1256 53.5975C95.0631 53.522 95.0008 53.4592 94.9259 53.3837C94.8261 53.2705 94.7139 53.1448 94.6015 53.0191C94.3021 52.6795 94.0152 52.3273 93.7283 51.9627C93.5536 51.7489 93.3915 51.5351 93.2293 51.3087C91.2332 48.6176 89.6987 45.5491 88.7755 42.2291C88.7755 42.2291 88.7755 42.2291 88.7755 42.2165C88.0769 39.802 87.7151 37.2491 87.7151 34.6209C87.7151 33.0866 87.8399 31.5775 88.0894 30.1062C88.0894 30.1062 88.0894 30.1062 88.0894 30.0936C88.1393 29.7289 88.2016 29.3893 88.2765 29.0373C88.2765 29.0247 88.2765 29.0121 88.2765 29.0121C89.3244 23.8686 91.7697 19.2533 95.2129 15.5687V15.5561C95.2253 15.5435 95.2253 15.5309 95.2253 15.5309C97.446 13.1668 100.066 11.1924 102.973 9.72097C106.017 8.18677 109.385 7.19332 112.953 6.89144C113.726 6.82858 114.512 6.79089 115.311 6.79089C119.69 6.79089 123.832 7.82211 127.499 9.64552L118.018 0.113215C117.132 0.0377638 116.222 0 115.311 0C96.3481 0 80.9659 15.4932 80.9659 34.6209C80.9659 53.7358 96.3481 69.2416 115.311 69.2416C133.812 69.2416 148.895 54.503 149.618 36.0419C149.643 35.564 149.656 35.0987 149.656 34.6209C149.656 33.9291 149.631 33.2375 149.581 32.5458V32.5332ZM56.027 42.1266H54.0795V54.3523C54.0795 55.1297 53.9175 55.9071 53.7146 56.5199C52.8624 58.4824 50.7937 60.4866 47.9545 60.4866C44.1003 60.4866 42.8022 57.4201 42.8022 53.1672V42.1266H40.8554V53.5344C40.8554 60.9361 45.0336 62.2035 47.508 62.2035C50.9564 62.2035 53.1871 60.0777 54.1605 58.2368H54.2421L54.3634 61.754H56.189C56.0672 60.241 56.027 58.6875 56.027 56.9694V42.1266ZM68.5646 41.6759C65.1972 41.6759 62.8038 43.2712 61.3839 45.8478H61.3028L61.181 42.1266H59.3152C59.437 44.0069 59.4772 45.9288 59.4772 48.3826V69.8508H61.4247V58.5647H61.5057C62.8446 60.9361 65.319 62.2035 68.1181 62.2035C72.8238 62.2035 76.9611 58.6052 76.9611 51.6124C76.9611 45.8478 73.5943 41.6759 68.5646 41.6759ZM67.9962 60.5677C64.9943 60.5677 62.3981 58.6052 61.5867 55.5792C61.4655 55.0892 61.4247 54.5574 61.4247 54.0256V50.1817C61.4247 49.6499 61.5867 49.0371 61.7085 48.5054C62.5607 45.2742 65.319 43.3118 68.1589 43.3118C72.5801 43.3118 75.0143 47.2785 75.0143 51.6947C75.0143 56.9288 72.4583 60.5677 67.9962 60.5677ZM171.308 49.4043C171.308 45.9288 170.213 41.6759 164.574 41.6759C162.83 41.6759 160.639 42.1672 158.854 43.3523L159.462 44.7842C160.882 43.7612 162.667 43.3118 164.371 43.3118C168.996 43.2712 169.361 47.1557 169.361 49.0777V49.6094C161.41 49.5271 157.475 52.267 157.475 56.806C157.475 59.4231 159.26 62.2035 163.195 62.2035C166.318 62.2035 168.468 60.4449 169.442 58.9331H169.523L169.807 61.754H171.592C171.348 60.241 171.308 58.6457 171.308 57.0922V49.4043ZM169.361 55.4564C169.361 55.7843 169.32 56.2337 169.158 56.6427C168.509 58.5647 166.643 60.5677 163.398 60.5677C161.369 60.5677 159.503 59.3003 159.503 56.4794C159.503 51.777 165.101 51.1224 169.361 51.2452V55.4564ZM186.28 61.754H188.228V32.7207H186.28V61.754ZM204.537 34.8066C203.645 34.8066 202.955 35.6245 202.955 36.5241C202.955 37.4231 203.564 38.2004 204.456 38.2004C205.471 38.2004 206.079 37.4231 206.079 36.5241C206.079 35.5834 205.43 34.8066 204.537 34.8066ZM203.564 61.754H205.511V42.1266H203.564V61.754ZM220.726 61.754H222.674V32.7207H220.726V61.754ZM245.15 41.6759C240.119 41.6759 236.387 45.7655 236.387 52.3075C236.387 58.0734 239.876 62.163 245.474 62.163C248.881 62.163 250.869 61.3045 251.599 60.8956L251.113 59.3826C250.017 59.9143 248.557 60.4866 245.717 60.4866C241.661 60.4866 238.294 57.9924 238.294 51.7352H252.654C252.735 51.368 252.735 51.0819 252.735 50.5501C252.735 47.728 251.518 41.6759 245.15 41.6759ZM238.375 50.1817C238.74 47.1557 240.606 43.3118 244.906 43.3118C249.612 43.3118 250.748 47.4418 250.707 50.1817H238.375ZM249.977 33.6209H247.137L243.527 39.264H245.028L249.977 33.6209ZM281.095 50.5501C281.095 47.728 279.878 41.6759 273.509 41.6759C268.478 41.6759 264.746 45.7655 264.746 52.3075C264.746 58.0734 268.235 62.163 273.834 62.163C277.242 62.163 279.229 61.3045 279.96 60.8956L279.472 59.3826C278.377 59.9143 276.916 60.4866 274.077 60.4866C270.02 60.4866 266.653 57.9924 266.653 51.7352H281.014C281.095 51.368 281.095 51.0819 281.095 50.5501ZM266.734 50.1817C267.099 47.1557 268.965 43.3118 273.266 43.3118C277.971 43.3118 279.107 47.4418 279.067 50.1817H266.734ZM31.8533 42.9568C30.579 42.2974 29.1736 41.7582 27.638 41.3419C26.1005 40.9268 24.5648 40.5498 23.0285 40.2096C21.4916 39.8694 20.0863 39.4641 18.8126 38.9901C17.5382 38.5185 16.4984 37.7915 15.6931 36.809C14.8872 35.8278 14.4845 34.5628 14.4845 33.013C14.4845 30.6335 15.252 28.8203 16.7896 27.5738C18.3252 26.3272 20.3306 25.704 22.8037 25.704C25.2769 25.704 27.225 26.299 28.6498 27.489C30.0734 28.6784 30.8604 30.0668 31.0102 31.6535H35.451C35.0014 28.8203 33.7271 26.5538 31.6285 24.8541C29.5294 23.1545 26.6542 22.3046 23.0005 22.3046C19.3468 22.3046 16.4046 23.2871 14.1757 25.2508C11.9456 27.2151 10.8308 29.7082 10.8308 32.7299C10.8308 35.7522 11.5801 38.0555 13.0792 39.6422C14.5777 41.2289 16.3863 42.2974 18.5037 42.8439C20.6205 43.3916 22.7379 43.873 24.8554 44.2893C26.9722 44.7044 28.7801 45.4499 30.2799 46.5269C31.7778 47.6039 32.5276 49.2091 32.5276 51.3435C32.5276 53.4779 31.7126 55.2623 30.0831 56.698C28.453 58.1336 26.2607 58.8508 23.5061 58.8508C20.7521 58.8508 18.681 58.2552 17.2951 57.0664C15.9081 55.8764 15.14 54.3744 14.9907 52.5618H10.8308C10.8308 55.5079 12.0302 57.8499 14.4285 59.5877C16.8261 61.3254 19.9456 62.1937 23.7875 62.1937C27.6282 62.1937 30.6539 61.0798 32.8651 58.8508C35.0757 56.6218 36.1813 54.0158 36.1813 51.0315C36.1813 49.0298 35.7787 47.3485 34.9728 45.989C34.1669 44.6283 33.1271 43.6188 31.8533 42.9568Z" fill="white"/>
<path d="M155.948 24.2585H157.003V13.6208H155.948V24.2585ZM156.431 11.4925C156.981 11.4925 157.31 11.0713 157.31 10.5837C157.31 10.0741 156.959 9.65284 156.475 9.65284C155.991 9.65284 155.617 10.0962 155.617 10.5837C155.617 11.0713 155.948 11.4925 156.431 11.4925ZM164.415 24.2585H165.471V17.676C165.471 17.3432 165.536 16.9895 165.603 16.723C166.02 15.3487 167.296 14.2852 168.768 14.2852C170.945 14.2852 171.693 16.0365 171.693 17.9646V24.2585H172.748V17.8749C172.748 13.8861 170.066 13.3764 169.054 13.3764C167.339 13.3764 165.998 14.3515 165.427 15.5489H165.383L165.316 13.6208H164.327C164.393 14.4621 164.415 15.194 164.415 16.1691V24.2585ZM183.724 24.2585C185.615 24.2585 186.846 23.2834 187.396 22.1978H187.44V23.7047C187.44 26.8511 185.835 28.0042 183.615 28.0042C182.251 28.0042 181.218 27.6051 180.47 27.1175L180.097 27.96C180.91 28.5802 182.251 28.8909 183.461 28.8909C184.648 28.8909 186.077 28.5581 187.044 27.6272C187.924 26.7847 188.496 25.4326 188.496 22.7075V16.3681C188.496 15.2603 188.518 14.4178 188.584 13.6208H187.616L187.55 15.4151H187.506C187.066 14.5284 186.033 13.3764 183.944 13.3764C181.614 13.3764 179.195 15.3266 179.195 19.0281C179.195 21.9313 181.064 24.2585 183.724 24.2585ZM184.032 14.2631C185.769 14.2631 186.869 15.393 187.308 16.6788C187.418 16.9895 187.44 17.3211 187.44 17.7202V19.8485C187.44 20.2243 187.374 20.6234 187.264 20.9783C186.715 22.5073 185.417 23.3719 183.988 23.3719C181.504 23.3719 180.25 21.3111 180.25 18.9176C180.25 16.1028 181.79 14.2631 184.032 14.2631ZM202.396 9.01055H200.857L198.9 12.0685H199.713L202.396 9.01055ZM199.955 24.4796C201.802 24.4796 202.879 24.0142 203.275 23.7931L203.011 22.9727C202.417 23.2613 201.626 23.572 200.087 23.572C197.888 23.572 196.063 22.2199 196.063 18.8292H203.847C203.891 18.629 203.891 18.4742 203.891 18.1856C203.891 16.6567 203.231 13.3764 199.779 13.3764C197.053 13.3764 195.03 15.5931 195.03 19.1386C195.03 22.2641 196.921 24.4796 199.955 24.4796ZM199.648 14.2631C202.198 14.2631 202.813 16.5019 202.792 17.9867H196.107C196.305 16.346 197.317 14.2631 199.648 14.2631ZM210.448 24.2585H211.503V17.676C211.503 17.3432 211.569 16.9895 211.635 16.723C212.052 15.3487 213.328 14.2852 214.801 14.2852C216.977 14.2852 217.726 16.0365 217.726 17.9646V24.2585H218.781V17.8749C218.781 13.8861 216.098 13.3764 215.087 13.3764C213.372 13.3764 212.031 14.3515 211.459 15.5489H211.415L211.349 13.6208H210.36C210.425 14.4621 210.448 15.194 210.448 16.1691V24.2585ZM226.107 24.2585H227.163V13.6208H226.107V24.2585ZM226.591 11.4925C227.141 11.4925 227.47 11.0713 227.47 10.5837C227.47 10.0741 227.119 9.65284 226.635 9.65284C226.151 9.65284 225.777 10.0962 225.777 10.5837C225.777 11.0713 226.107 11.4925 226.591 11.4925ZM238.62 24.4796C240.467 24.4796 241.544 24.0142 241.94 23.7931L241.676 22.9727C241.082 23.2613 240.291 23.572 238.752 23.572C236.553 23.572 234.728 22.2199 234.728 18.8292H242.511C242.556 18.629 242.556 18.4742 242.556 18.1856C242.556 16.6567 241.896 13.3764 238.444 13.3764C235.717 13.3764 233.695 15.5931 233.695 19.1386C233.695 22.2641 235.586 24.4796 238.62 24.4796ZM238.312 14.2631C240.862 14.2631 241.478 16.5019 241.456 17.9867H234.772C234.97 16.346 235.982 14.2631 238.312 14.2631ZM252.631 24.5029C254.5 24.5029 255.709 23.3498 256.236 22.3526H256.28L256.346 24.2585H257.336C257.269 23.4382 257.247 22.5957 257.247 21.666V13.6208H256.192V20.2476C256.192 20.6676 256.104 21.0888 255.994 21.4217C255.533 22.4852 254.411 23.572 252.872 23.572C250.784 23.572 250.08 21.9092 250.08 19.6041V13.6208H249.024V19.8043C249.024 23.8152 251.289 24.5029 252.631 24.5029ZM264.64 24.2585H265.695V18.3858C265.695 18.0309 265.717 17.676 265.783 17.3653C266.069 15.6594 267.102 14.3957 268.553 14.3957C268.751 14.3957 268.905 14.3957 269.059 14.44V13.4206C268.927 13.3985 268.773 13.3764 268.619 13.3764C267.19 13.3764 266.091 14.44 265.629 15.77H265.563L265.519 13.6208H264.552C264.618 14.6622 264.64 15.7479 264.64 16.8114V24.2585ZM276.955 23.5942C276.01 23.5942 275.152 23.2171 274.581 22.8622L274.207 23.7489C274.911 24.1922 275.878 24.4796 276.89 24.4796C279.045 24.4796 280.452 23.2613 280.452 21.4438C280.452 19.8264 279.439 18.9618 277.725 18.2962C276.296 17.6981 275.548 17.2105 275.548 16.1028C275.548 15.1277 276.252 14.2631 277.594 14.2631C278.649 14.2631 279.33 14.6401 279.704 14.9054L280.1 14.0408C279.572 13.665 278.737 13.3764 277.769 13.3764C275.725 13.3764 274.515 14.7286 274.515 16.2575C274.515 17.5433 275.46 18.4963 277.198 19.1607C278.715 19.7822 279.418 20.4023 279.418 21.5764C279.418 22.6854 278.627 23.5942 276.955 23.5942ZM0 29.8427H1.24755V2.22534H87.7151V0.967773H0V29.8427ZM289.752 37.6012V70.7425H152.743V72H291V37.6012H289.752Z" fill="white"/>
<path d="M87.8648 31.8793C87.765 32.7848 87.7151 33.6902 87.7151 34.6209C87.7151 36.8593 87.977 39.0348 88.4761 41.1099C88.7755 40.2799 89.0998 39.4499 89.4866 38.6199C88.5384 35.9664 88.0768 33.5771 87.8648 31.8793ZM90.1353 40.2924C89.8483 40.9967 89.5989 41.701 89.3743 42.4052L89.1872 43.0088L88.9875 42.9459C89.8359 45.7125 91.1209 48.2906 92.7427 50.6171C93.0296 49.2715 93.4039 47.9384 93.878 46.6683C92.3809 44.7819 91.1334 42.6566 90.1353 40.2924ZM94.8136 47.7875C94.4144 48.9697 94.0775 50.1895 93.8405 51.4345L93.7283 51.9627C94.0152 52.3273 94.3021 52.6795 94.6015 53.0191C94.7138 53.1448 94.826 53.2705 94.9259 53.3837C95.0007 53.4592 95.0631 53.522 95.1255 53.5975C95.3126 53.7987 95.4998 53.9999 95.6869 54.1886C95.9364 54.44 96.1734 54.679 96.4354 54.9179C96.5602 55.0186 96.6725 55.1318 96.7972 55.2449L98.4814 56.1126L99.0552 56.3516C99.5418 56.5528 100.016 56.7414 100.477 56.9049C100.59 55.836 100.814 54.4778 101.226 52.9813C98.7683 51.5854 96.6225 49.8374 94.8136 47.7875ZM101.588 58.7787C103.983 60.162 106.615 61.1932 109.41 61.7969C109.422 61.4573 109.435 61.0549 109.472 60.6273C107.002 60.2878 104.357 59.6213 101.6 58.6529L101.588 58.7787ZM101.688 57.3576C104.482 58.3511 107.139 59.0428 109.61 59.3823C109.747 58.3008 109.959 57.2696 110.233 56.3139C107.376 55.7228 104.719 54.8174 102.349 53.5975C101.975 55.0563 101.775 56.3642 101.688 57.3576ZM110.857 59.5207C117.02 60.1369 120.575 58.4014 122.322 57.1062C121.287 57.169 120.276 57.1941 119.278 57.1941C116.496 57.1941 113.889 56.9804 111.468 56.5402C111.194 57.4708 110.994 58.4643 110.857 59.5207ZM121.137 55.8989C118.292 54.8676 115.66 53.6855 113.277 52.3777C112.703 53.2705 112.242 54.264 111.868 55.3329C114.7 55.8234 117.806 56.012 121.137 55.8989ZM117.831 47.9888H117.818C116.321 48.8188 115.036 49.938 113.988 51.3213C116.546 52.7298 119.39 53.9747 122.497 55.0437C120.875 52.7801 119.303 50.4159 117.831 47.9888ZM124.518 46.1024C122.459 46.2533 120.588 46.6809 118.954 47.4103C120.463 49.9002 122.072 52.3148 123.744 54.6287C124.143 51.7111 124.405 48.8564 124.518 46.1024ZM125.778 46.0395C125.665 48.7685 125.403 51.6105 125.017 54.5155C127.524 51.9627 129.545 49.2589 131.017 46.4168C129.171 46.1275 127.412 45.9892 125.778 46.0395ZM134.748 47.1713C133.924 46.9701 133.113 46.7941 132.315 46.6432C131.017 49.196 129.321 51.6483 127.25 53.9747C130.256 52.2142 132.764 49.938 134.748 47.1713ZM113.365 60.9165C112.541 60.9165 111.656 60.8789 110.707 60.7782C110.682 61.2058 110.67 61.6082 110.657 61.9478V62.0484C110.707 62.0609 110.77 62.0735 110.82 62.0735C111.094 62.1238 111.381 62.1615 111.656 62.1993C111.793 62.2244 111.93 62.237 112.067 62.2496C112.329 62.2873 112.591 62.3124 112.853 62.3376C113.215 62.3753 113.589 62.4005 113.963 62.4131C114.413 62.4382 114.862 62.4508 115.311 62.4508C116.271 62.4508 117.22 62.4005 118.155 62.2998C118.779 62.237 119.403 62.1489 120.014 62.0484C120.675 61.9352 121.324 61.7969 121.96 61.6334C122.16 61.5831 122.359 61.5327 122.559 61.4825C122.584 61.4825 122.609 61.4699 122.634 61.4573C122.609 61.4573 122.584 61.4573 122.559 61.4699C123.046 60.1871 123.27 58.8415 123.37 57.8858C121.761 59.2063 118.629 60.9165 113.365 60.9165ZM124.019 61.0298C123.856 61.0926 123.682 61.1429 123.52 61.1932C123.682 61.1429 123.856 61.0926 124.019 61.0423C124.231 60.9668 124.43 60.8914 124.642 60.8159C124.929 60.7154 125.216 60.6021 125.503 60.4889C125.715 60.4135 125.927 60.3255 126.14 60.2249C126.239 60.1871 126.352 60.1369 126.464 60.0866L124.655 57.6972C124.568 58.5523 124.405 59.7596 124.019 61.0298ZM127.624 59.5332C128.223 59.244 128.797 58.917 129.371 58.5775C129.757 58.3511 130.132 58.1122 130.506 57.8481C128.348 57.76 126.589 57.2445 125.591 56.8672L127.624 59.5332ZM126.464 55.836C127.736 56.2509 129.882 56.754 132.315 56.5402C132.415 56.4774 132.502 56.4018 132.602 56.3139C132.964 56.0246 133.313 55.7228 133.65 55.421C133.987 55.1192 134.323 54.8048 134.635 54.4904C134.797 54.3395 134.947 54.1886 135.097 54.0251C135.459 53.6604 135.808 53.2705 136.145 52.8807C136.157 52.8681 136.157 52.8681 136.17 52.8556C136.544 52.4154 136.918 51.9501 137.28 51.4722C137.617 51.0195 137.954 50.5416 138.278 50.0637C138.303 50.0135 138.328 49.9757 138.353 49.938C138.615 49.5356 138.864 49.1331 139.114 48.7181C139.164 48.6427 139.201 48.5546 139.251 48.4792C138.153 48.1145 137.068 47.7875 136.045 47.4983C133.612 51.0321 130.394 53.8238 126.464 55.836ZM138.066 40.9464H134.56L134.511 41.1225C134.086 42.5938 133.55 44.0526 132.889 45.4737C133.75 45.6371 134.623 45.8383 135.496 46.0647C136.532 44.4675 137.392 42.7573 138.066 40.9464ZM131.616 45.2472C132.277 43.8513 132.839 42.4052 133.263 40.9464H125.84C125.878 42.1788 125.865 43.4741 125.828 44.7819C127.624 44.7443 129.57 44.9077 131.616 45.2472ZM94.0526 22.6236C93.9653 19.8947 94.2148 17.7317 94.4144 16.4741C91.5201 19.8444 89.4242 23.9189 88.4137 28.4085C88.3762 28.5216 88.3514 28.6348 88.3389 28.748C88.4262 28.6348 88.5135 28.5216 88.6008 28.4085C90.2476 26.3335 92.0815 24.3968 94.0526 22.6236ZM88.9377 30.0181C89.0125 31.2631 89.287 33.8789 90.2601 37.0102C91.57 34.4574 93.1918 32.1182 95.0756 30.0307C94.6015 28.1444 94.2896 26.2202 94.1274 24.2584C92.2437 26.0191 90.5096 27.9557 88.9377 30.0181ZM94.4144 45.3102C95.4748 42.8579 96.872 40.5943 98.5687 38.5947C97.2588 36.3563 96.2109 33.9669 95.4748 31.4643C93.616 33.6147 92.069 36.0293 90.8215 38.6702C91.7571 41.135 92.9547 43.3484 94.4144 45.3102ZM105.38 46.8444C104.233 48.4792 103.347 50.3279 102.711 52.3651C105.068 53.5975 107.726 54.5281 110.608 55.1066C111.019 53.8867 111.556 52.7675 112.192 51.7615C109.672 50.2901 107.389 48.6427 105.38 46.8444ZM117.17 46.9072C115.91 44.7945 114.675 42.5686 113.502 40.2924C110.508 41.6003 108.038 43.4615 106.141 45.8383C108.125 47.6241 110.395 49.2589 112.903 50.7051C114.051 49.1457 115.485 47.863 117.17 46.9072ZM101.6 51.7489C102.286 49.6236 103.235 47.6995 104.457 45.9892C102.436 44.0777 100.702 41.9776 99.2549 39.7266C97.6206 41.7261 96.2857 43.9897 95.3126 46.4419C97.0717 48.5546 99.18 50.3404 101.6 51.7489ZM124.593 40.959V40.9464H123.208V38.1168C120.039 38.3306 117.17 38.8965 114.662 39.8271C115.822 42.0782 117.045 44.2664 118.292 46.3413C120.126 45.4988 122.235 44.9958 124.58 44.8323C124.617 43.4993 124.63 42.2039 124.593 40.959ZM140.075 32.4704C140.212 31.2631 140.287 30.1062 140.299 29.0121C138.765 28.3707 137.081 27.8802 135.284 27.591C135.546 29.2636 135.671 30.9236 135.671 32.5333H140.075V32.4704ZM125.229 32.5333H134.423C134.423 30.8733 134.286 29.1504 134.012 27.4024C131.092 27.0251 127.836 27.0755 124.343 27.5407C124.692 29.0624 124.979 30.7224 125.216 32.4452L125.229 32.5333ZM123.17 36.8593H123.208V32.5333H123.956C123.732 30.8356 123.445 29.2258 123.095 27.7293C122.147 27.8677 121.112 28.0563 119.952 28.2953C116.533 29.0247 113.402 30.0307 110.62 31.2757C111.668 33.7405 112.841 36.2431 114.088 38.7079C116.758 37.7018 119.802 37.073 123.17 36.8593ZM95.2752 21.5547C97.9325 19.3162 100.814 17.4173 103.821 15.8831C102.948 12.7392 102.523 10.6641 102.399 10.0354C99.9285 11.3433 97.6705 13.041 95.7118 15.0279L95.9613 15.0908L95.8241 15.707C95.6869 16.3484 95.2752 18.4862 95.2752 21.5547ZM95.3251 23.1644C95.4124 25.1262 95.6744 27.0629 96.1111 28.9492C98.8182 26.2202 102.074 23.944 105.792 22.1709C105.168 20.3726 104.632 18.6748 104.183 17.1155C101.039 18.7252 98.0572 20.7499 95.3251 23.1644ZM104.969 15.3297C108.574 13.6321 112.429 12.4499 116.421 11.8086C114.313 8.77779 112.591 7.40709 112.566 7.38191L112.08 7.00466L112.092 6.99207C109.061 7.33164 106.191 8.18677 103.559 9.44434L103.584 9.60783C103.596 9.63301 103.996 11.7834 104.969 15.3297ZM105.318 16.5496C105.767 18.1216 106.303 19.8319 106.927 21.6553C108.562 20.9259 110.283 20.2971 112.042 19.7815C114.712 18.9892 117.369 18.3982 119.914 18.0335C119.128 16.2477 118.205 14.5375 117.195 12.9655C113.09 13.5566 109.061 14.7638 105.318 16.5496ZM96.4604 30.3954C97.159 32.9357 98.157 35.3502 99.442 37.6013C102.012 34.8094 105.206 32.483 108.998 30.6595C107.95 28.1946 107.015 25.7424 106.204 23.3656C102.411 25.1765 99.1301 27.5533 96.4604 30.3954ZM112.928 39.1858C111.693 36.7461 110.545 34.2687 109.497 31.8164C105.755 33.6147 102.586 35.9413 100.116 38.733C101.513 40.9841 103.235 43.0968 105.231 44.9832C107.227 42.4932 109.822 40.5314 112.928 39.1858ZM119.702 27.0629C120.825 26.8239 121.848 26.6353 122.796 26.4969C122.185 23.9189 121.399 21.4919 120.438 19.2408C117.843 19.5929 115.136 20.1839 112.392 20.9888C110.645 21.5044 108.948 22.1206 107.339 22.85C108.162 25.2268 109.086 27.6791 110.121 30.1313C112.978 28.836 116.197 27.8174 119.702 27.0629ZM117.818 11.6199C121.037 11.205 124.455 11.142 127.936 11.4438C127.375 10.5384 127 10.0229 127 10.0229L126.626 9.5072L126.851 9.34371C123.345 7.70889 119.44 6.79089 115.311 6.79089C114.824 6.79089 114.325 6.80348 113.851 6.82858C114.6 7.53282 116.109 9.06709 117.818 11.6199ZM118.567 12.802C119.552 14.3866 120.438 16.0843 121.212 17.8575C124.555 17.3922 127.899 17.2915 131.117 17.5305C130.269 15.5561 129.408 13.9339 128.759 12.802C125.279 12.4248 121.873 12.4248 118.567 12.802ZM129.508 11.6073C130.019 11.6577 130.531 11.7205 131.13 11.8086C130.344 11.2552 129.52 10.7396 128.672 10.2618C128.909 10.6139 129.184 11.0666 129.495 11.6073H129.508ZM132.502 17.6311C134.323 17.8072 136.082 18.0712 137.767 18.436C136.332 16.4112 134.635 14.6003 132.727 13.0284C132.727 13.0284 130.78 13.0284 130.281 12.9655C130.943 14.1728 131.741 15.7699 132.502 17.6311ZM133.774 26.1071C133.325 23.68 132.602 21.2403 131.641 18.8258C128.398 18.5491 125.067 18.6372 121.711 19.0648C122.659 21.3284 123.445 23.768 124.056 26.3335C127.499 25.843 130.78 25.7675 133.774 26.1071ZM135.072 26.2832C136.943 26.5724 138.702 27.0377 140.324 27.6791C140.312 25.5538 139.376 20.9385 138.752 19.945L138.141 19.8067C136.519 19.4294 134.797 19.1402 133.038 18.9515C133.962 21.3786 134.648 23.8435 135.072 26.2832ZM139.401 40.9464L139.326 41.1601C138.652 43.0088 137.792 44.7693 136.756 46.4042C137.717 46.6809 138.727 46.9827 139.75 47.3097L139.863 47.3474C140.886 45.3479 141.684 43.1974 142.195 40.9464H139.401Z" fill="white"/>
</g>
<defs>
<clipPath id="clip0_86_35">
<rect width="291" height="72" fill="white"/>
</clipPath>
</defs>
</svg>
