<svg width="27" height="22" viewBox="0 0 27 22" fill="none" xmlns="http://www.w3.org/2000/svg">
<path d="M1 20.3182V19.1818C1 14.7887 4.56138 11.2273 8.95455 11.2273C13.3477 11.2273 16.9091 14.7887 16.9091 19.1818V20.3182" stroke="#FFFFFF" stroke-width="2" stroke-linecap="round"/>
<path d="M14.6363 13.4999C14.6363 10.362 17.1802 7.81812 20.3181 7.81812C23.4561 7.81812 25.9999 10.362 25.9999 13.4999V14.0681" stroke="#FFFFFF" stroke-width="2" stroke-linecap="round"/>
<path d="M8.95451 11.2273C11.4649 11.2273 13.5 9.19215 13.5 6.68181C13.5 4.17142 11.4649 2.13635 8.95451 2.13635C6.44413 2.13635 4.40906 4.17142 4.40906 6.68181C4.40906 9.19215 6.44413 11.2273 8.95451 11.2273Z" stroke="#FFFFFF" stroke-width="2" stroke-linecap="round" stroke-linejoin="round"/>
<path d="M20.3181 7.81818C22.201 7.81818 23.7272 6.29187 23.7272 4.40909C23.7272 2.52631 22.201 1 20.3181 1C18.4353 1 16.9091 2.52631 16.9091 4.40909C16.9091 6.29187 18.4353 7.81818 20.3181 7.81818Z" stroke="#FFFFFF" stroke-width="2" stroke-linecap="round" stroke-linejoin="round"/>
</svg>